<svg version="1.2" xmlns="http://www.w3.org/2000/svg" viewBox="0 0 64 64" width="64" height="64">
	<style>
		.s0 { fill: none } 
		.s1 { fill: #ffffff } 
	</style>
	<g>
		<path fill-rule="evenodd" class="s0" d="m64 0v64h-64v-64z"/>
	</g>
	<g>
		<g>
			<path class="s1" d="m54.53 16l1.31-2.83 2.83-1.3c1.04-0.48 1.04-1.95 0-2.43l-2.83-1.31-1.31-2.8c-0.48-1.04-1.94-1.04-2.42 0l-1.31 2.83-2.8 1.31c-1.04 0.48-1.04 1.94 0 2.42l2.83 1.31 1.3 2.8c0.46 1.04 1.95 1.04 2.4 0z"/>
			<path class="s1" d="m23.87 16l1.3-2.83 2.83-1.3c1.04-0.48 1.04-1.95 0-2.43l-2.83-1.28-1.3-2.83c-0.46-1.04-1.95-1.04-2.4 0l-1.31 2.83-2.83 1.31c-1.04 0.48-1.04 1.94 0 2.42l2.83 1.31 1.31 2.8c0.45 1.04 1.94 1.04 2.4 0z"/>
			<path class="s1" d="m52.13 36l-1.3 2.83-2.83 1.3c-1.04 0.48-1.04 1.95 0 2.43l2.83 1.31 1.3 2.82c0.48 1.04 1.95 1.04 2.43 0l1.31-2.82 2.8-1.34c1.04-0.48 1.04-1.94 0-2.42l-2.83-1.31-1.31-2.83c-0.45-1.01-1.94-1.01-2.4 0.03z"/>
			<path class="s1" d="m47.23 24.32l-7.55-7.55c-1.04-1.04-2.72-1.04-3.76 0l-29.81 29.79c-1.04 1.04-1.04 2.72 0 3.76l7.54 7.55c1.04 1.04 2.72 1.04 3.76 0l29.79-29.79c1.07-1.01 1.07-2.72 0.03-3.76zm-9.34 5.57l-3.76-3.76 3.68-3.68 3.76 3.76z"/>
		</g>
	</g>
</svg>