<svg version="1.2" xmlns="http://www.w3.org/2000/svg" viewBox="0 0 64 64" width="64" height="64">
	<style>
		.s0 { fill: none } 
		.s1 { fill: #000000 } 
	</style>
	<path fill-rule="evenodd" class="s0" d="m64 0v64h-64v-64z"/>
	<path class="s1" d="m58.67 8h-40c-1.84 0-3.28 0.93-4.24 2.35l-13.44 20.18c-0.59 0.91-0.59 2.06 0 2.96l13.44 20.16c0.96 1.39 2.4 2.35 4.24 2.35h40c2.93 0 5.33-2.4 5.33-5.33v-37.34c0-2.93-2.4-5.33-5.33-5.33zm-9.87 35.47c-1.04 1.04-2.72 1.04-3.76 0l-7.71-7.71-7.7 7.71c-1.04 1.04-2.72 1.04-3.76 0-1.04-1.04-1.04-2.72 0-3.76l7.7-7.71-7.7-7.71c-1.04-1.04-1.04-2.72 0-3.76 1.04-1.04 2.72-1.04 3.76 0l7.7 7.71 7.71-7.71c1.04-1.04 2.72-1.04 3.76 0 1.04 1.04 1.04 2.72 0 3.76l-7.71 7.71 7.71 7.71c1.01 1.01 1.01 2.72 0 3.76z"/>
</svg>