<svg version="1.2" xmlns="http://www.w3.org/2000/svg" viewBox="0 0 64 64" width="64" height="64">
	<style>
		.s0 { fill: none } 
		.s1 { fill: #ffffff } 
	</style>
	<path fill-rule="evenodd" class="s0" d="m64 0v64h-64v-64z"/>
	<path class="s1" d="m40 32c5.89 0 10.67-4.77 10.67-10.67 0-5.89-4.78-10.66-10.67-10.66-5.89 0-10.67 4.77-10.67 10.66 0 5.9 4.78 10.67 10.67 10.67zm-24-5.33v-5.34c0-1.46-1.2-2.66-2.67-2.66-1.46 0-2.66 1.2-2.66 2.66v5.34h-5.34c-1.46 0-2.66 1.2-2.66 2.66 0 1.47 1.2 2.67 2.66 2.67h5.34v5.33c0 1.47 1.2 2.67 2.66 2.67 1.47 0 2.67-1.2 2.67-2.67v-5.33h5.33c1.47 0 2.67-1.2 2.67-2.67 0-1.46-1.2-2.66-2.67-2.66zm24 10.66c-7.12 0-21.33 3.58-21.33 10.67v2.67c0 1.46 1.2 2.66 2.67 2.66h37.33c1.47 0 2.67-1.2 2.67-2.66v-2.67c0-7.09-14.22-10.67-21.34-10.67z"/>
</svg>