<svg version="1.2" xmlns="http://www.w3.org/2000/svg" viewBox="0 0 64 64" width="64" height="64">
	<style>
		.s0 { fill: none } 
		.s1 { fill: #ffffff } 
	</style>
	<path fill-rule="evenodd" class="s0" d="m64 0v64h-64v-64z"/>
	<path class="s1" d="m48 53.33h-37.33v-37.33h24v-5.33h-24c-2.94 0-5.34 2.4-5.34 5.33v37.33c0 2.94 2.4 5.34 5.34 5.34h37.33c2.93 0 5.33-2.4 5.33-5.34v-24h-5.33zm-20.77-8.45l-5.23-6.29-7.33 9.41h29.33l-9.44-12.56zm26.11-34.21v-8h-5.34v8h-8c0.03 0.02 0 5.33 0 5.33h8v7.97c0.03 0.03 5.34 0 5.34 0v-7.97h8v-5.33z"/>
</svg>