<svg version="1.2" xmlns="http://www.w3.org/2000/svg" viewBox="0 0 64 64" width="64" height="64">
	<style>
		.s0 { fill: none } 
		.s1 { fill: #ffffff } 
	</style>
	<path fill-rule="evenodd" class="s0" d="m64 0v64h-64v-64z"/>
	<path class="s1" d="m39.6 12.93l3.84 3.84-7.68 7.68 3.79 3.79 7.68-7.68 3.84 3.84c0.82 0.83 2.26 0.24 2.26-0.96v-11.44c0-0.75-0.58-1.33-1.33-1.33h-11.44c-1.2 0-1.79 1.44-0.96 2.26zm-16.16-2.26h-11.44c-0.75 0-1.33 0.58-1.33 1.33v11.44c0 1.2 1.44 1.79 2.26 0.93l3.84-3.84 12.56 12.54v17.6c0 1.46 1.2 2.66 2.67 2.66 1.47 0 2.67-1.2 2.67-2.66v-18.67c0-0.69-0.3-1.39-0.78-1.89l-13.33-13.36 3.84-3.84c0.83-0.8 0.24-2.24-0.96-2.24z"/>
</svg>