<svg version="1.2" xmlns="http://www.w3.org/2000/svg" viewBox="0 0 64 64" width="64" height="64">
	<style>
		.s0 { fill: none } 
		.s1 { fill: #ffffff } 
	</style>
	<path fill-rule="evenodd" class="s0" d="m64 0v64h-64v-64z"/>
	<path class="s1" d="m25.71 20.37c0.77-1.65 1.12-3.54 0.9-5.57-0.5-4.61-4.1-8.53-8.69-9.31-7.39-1.28-13.71 5.04-12.43 12.4 0.8 4.59 4.7 8.19 9.31 8.7 2.03 0.21 3.89-0.14 5.57-0.91l6.3 6.32-6.3 6.29c-1.65-0.77-3.54-1.12-5.57-0.9-4.61 0.5-8.53 4.1-9.31 8.69-1.28 7.39 5.04 13.68 12.4 12.4 4.59-0.8 8.19-4.69 8.7-9.31 0.21-2.02-0.14-3.89-0.91-5.57l6.32-6.27 20.24 20.24c2.37 2.38 6.43 0.7 6.43-2.66v-0.03c0-0.99-0.4-1.95-1.1-2.67zm-9.7 0.96c-2.94 0-5.34-2.37-5.34-5.33 0-2.96 2.4-5.33 5.34-5.33 2.93 0 5.33 2.37 5.33 5.33 0 2.96-2.4 5.33-5.33 5.33zm0 32c-2.94 0-5.34-2.37-5.34-5.33 0-2.96 2.4-5.33 5.34-5.33 2.93 0 5.33 2.37 5.33 5.33 0 2.96-2.4 5.33-5.33 5.33zm16-20c-0.75 0-1.34-0.58-1.34-1.33 0-0.75 0.59-1.33 1.34-1.33 0.74 0 1.33 0.58 1.33 1.33 0 0.75-0.59 1.33-1.33 1.33zm20.24-26.9l-17.58 17.57 5.34 5.33 17.57-17.57c0.69-0.69 1.09-1.65 1.09-2.67v-0.02c0-3.34-4.05-5.02-6.42-2.64z"/>
</svg>