<svg version="1.2" xmlns="http://www.w3.org/2000/svg" viewBox="0 0 64 64" width="64" height="64">
	<style>
		.s0 { fill: none } 
		.s1 { fill: #ffffff } 
	</style>
	<g>
		<path fill-rule="evenodd" class="s0" d="m64 0v64h-64v-64z"/>
		<path fill-rule="evenodd" class="s0" d="m64 0v64h-64v-64z"/>
	</g>
	<g>
		<g>
			<path fill-rule="evenodd" class="s1" d="m44 11.68c-2.95 0-5.33-2.38-5.33-5.33 0-2.95 2.38-5.34 5.33-5.34 2.95 0 5.33 2.39 5.33 5.34 0 2.95-2.38 5.33-5.33 5.33z"/>
			<path class="s1" d="m64 29.01v-9.86l-13.31-5.63c-2.61-1.09-5.65-0.19-7.22 2.16l-2.67 4.27c-1.79 3.14-5.09 5.49-9.09 6.18l0.16 0.16c1.84 1.84 4.05 2.86 6.56 3.12 2.13-1.12 4.05-2.61 5.57-4.37l1.6 8-3.09 2.93-2.51 2.38v2.02 15.31c0 1.47 1.2 2.67 2.67 2.67 1.46 0 2.66-1.2 2.66-2.67v-13.33l5.6-5.34 4.32 19.18c0.3 1.25 1.42 2.16 2.72 2.16 1.76 0 3.07-1.6 2.72-3.31l-5.17-26.03-1.65-8.26 4.8 1.86v6.4c0 1.47 1.2 2.67 2.66 2.67 1.47 0 2.67-1.2 2.67-2.67z"/>
			<path class="s1" d="m27.44 21.57c0.59 0.4 1.25 0.64 1.92 0.78 0.35 0.05 0.67 0.1 1.01 0.1q0.53 0.01 1.02-0.1 0.51-0.09 0.98-0.3c0.64-0.26 1.26-0.64 1.76-1.17 1.31-1.31 1.79-3.12 1.47-4.8-0.19-0.99-0.67-1.97-1.47-2.75-0.5-0.5-1.12-0.9-1.76-1.17q-0.47-0.21-0.98-0.29c-0.35-0.06-0.67-0.11-1.02-0.11q-0.46 0-0.93 0.08-0.57 0.09-1.09 0.29c-0.62 0.3-1.23 0.7-1.74 1.2-0.8 0.78-1.28 1.76-1.46 2.75-0.32 1.68 0.16 3.49 1.46 4.8 0.24 0.27 0.54 0.48 0.83 0.69z"/>
			<path class="s1" d="m29.97 28.16l-5.33-5.33q-0.39-0.39-0.83-0.7c-0.58-0.37-1.25-0.64-1.92-0.74q-0.5-0.12-1.01-0.11c-1.36 0-2.72 0.53-3.76 1.57l-8.91 8.91c-1.09 1.09-1.65 2.61-1.54 4.11q0 0.73 0.29 1.46l2.85 7.87-7.78 7.79c-1.04 1.04-1.04 2.72 0 3.76 1.04 1.04 2.72 1.04 3.76 0l9.44-9.44v-5.92l3.44 3.28v11.01c0 1.47 1.2 2.67 2.66 2.67 1.47 0 2.67-1.2 2.67-2.67v-13.33l-5.65-5.66 6.29-6.29 1.89 1.89c2.72 2.67 6.08 4.51 10.11 5.18 1.71 0.29 3.23-1.2 3.09-2.94-0.08-1.28-1.06-2.32-2.32-2.5-3.01-0.48-5.49-1.92-7.44-3.87z"/>
		</g>
	</g>
</svg>